<svg xmlns="http://www.w3.org/2000/svg" version="1.1" xmlns:xlink="http://www.w3.org/1999/xlink" xmlns:svgjs="http://svgjs.dev/svgjs" width="1000" height="1000" viewBox="0 0 1000 1000"><rect width="1000" height="1000" fill="#000000"></rect><g transform="matrix(0.7,0,0,0.7,149.57575757575756,282.1265587044535)"><svg viewBox="0 0 396 247" data-background-color="#ffffff" preserveAspectRatio="xMidYMid meet" height="623" width="1000" xmlns="http://www.w3.org/2000/svg" xmlns:xlink="http://www.w3.org/1999/xlink"><g id="tight-bounds" transform="matrix(1,0,0,1,0.2400000000000091,-0.09999999999999432)"><svg viewBox="0 0 395.52 247.2" height="247.2" width="395.52"><g><svg></svg></g><g><svg viewBox="0 0 395.52 247.2" height="247.2" width="395.52"><g transform="matrix(1,0,0,1,75.54432,98.57423121276567)"><svg viewBox="0 0 244.43135999999998 50.05153757446866" height="50.05153757446866" width="244.43135999999998"><g><svg viewBox="0 0 324.33564413261695 66.41331815624302" height="50.05153757446866" width="244.43135999999998"><g transform="matrix(1,0,0,1,0,18.919982354975236)"><svg viewBox="0 0 244.43135999999998 28.57335344629255" height="28.57335344629255" width="244.43135999999998"><g id="textblocktransform"><svg viewBox="0 0 244.43135999999998 28.57335344629255" height="28.57335344629255" width="244.43135999999998" id="textblock"><g><svg viewBox="0 0 244.43135999999998 28.57335344629255" height="28.57335344629255" width="244.43135999999998"><g transform="matrix(1,0,0,1,0,0)"><svg width="244.43135999999998" viewBox="3.4000000953674316 -37 319.72003173828125 37.599998474121094" height="28.57335344629255" data-palette-color="#ffccea"><g class="wordmark-text-0" data-fill-palette-color="primary" id="text-0"><path d="M26.75 0L26.75-18.2 27.15-24.05 26.35-24.05 24.2-18.5 18.4-5.85 12.65-18.5 10.5-24.05 9.7-24.05 10.1-18.2 10.1 0 3.4 0 3.4-34.9 10.9-34.9 15.65-24.5 18.25-17.05 18.75-17.05 21.35-24.5 26-34.9 33.45-34.9 33.45 0 26.75 0ZM52.95 0.6L52.95 0.6Q49.8 0.6 47.25-0.38 44.7-1.35 42.9-3.53 41.1-5.7 40.1-9.13 39.1-12.55 39.1-17.45L39.1-17.45Q39.1-22.35 40.1-25.78 41.1-29.2 42.9-31.38 44.7-33.55 47.25-34.52 49.8-35.5 52.95-35.5L52.95-35.5Q56.1-35.5 58.65-34.52 61.2-33.55 63-31.38 64.8-29.2 65.8-25.78 66.8-22.35 66.8-17.45L66.8-17.45Q66.8-12.55 65.8-9.13 64.8-5.7 63-3.53 61.2-1.35 58.65-0.38 56.1 0.6 52.95 0.6ZM52.95-5.7L52.95-5.7Q55.95-5.7 57.57-7.5 59.2-9.3 59.2-12.9L59.2-12.9 59.2-22Q59.2-25.6 57.57-27.4 55.95-29.2 52.95-29.2L52.95-29.2Q49.95-29.2 48.32-27.4 46.7-25.6 46.7-22L46.7-22 46.7-12.9Q46.7-9.3 48.32-7.5 49.95-5.7 52.95-5.7ZM95.75 0L95.75-18.2 96.15-24.05 95.34-24.05 93.2-18.5 87.4-5.85 81.65-18.5 79.5-24.05 78.7-24.05 79.09-18.2 79.09 0 72.4 0 72.4-34.9 79.9-34.9 84.65-24.5 87.25-17.05 87.75-17.05 90.34-24.5 95-34.9 102.45-34.9 102.45 0 95.75 0ZM115.09-21L108.89-21 108.89-37 115.09-37 115.09-21ZM131.69 0.6L131.69 0.6Q123.84 0.6 119.39-4.9L119.39-4.9 123.99-9.5Q126.99-5.65 131.84-5.65L131.84-5.65Q136.84-5.65 136.84-10.05L136.84-10.05Q136.84-11.85 135.94-12.85 135.04-13.85 133.14-14.25L133.14-14.25 129.94-14.85Q125.09-15.75 122.82-18.23 120.54-20.7 120.54-25.1L120.54-25.1Q120.54-30.2 123.54-32.85 126.54-35.5 132.34-35.5L132.34-35.5Q139.74-35.5 143.59-30.7L143.59-30.7 138.99-26.1Q137.69-27.7 136.07-28.48 134.44-29.25 132.24-29.25L132.24-29.25Q129.84-29.25 128.77-28.35 127.69-27.45 127.69-25.45L127.69-25.45Q127.69-23.7 128.52-22.8 129.34-21.9 131.19-21.5L131.19-21.5 134.39-20.85Q136.94-20.3 138.77-19.53 140.59-18.75 141.77-17.55 142.94-16.35 143.47-14.7 143.99-13.05 143.99-10.85L143.99-10.85Q143.99-5.25 140.84-2.33 137.69 0.6 131.69 0.6Z" fill="#ffffff" data-fill-palette-color="primary"></path><path d="M170.79 0.6L170.79 0.6Q167.64 0.6 165.06-0.35 162.49-1.3 160.66-3.4 158.84-5.5 157.81-8.9 156.79-12.3 156.79-17.2L156.79-17.2Q156.79-22.1 157.81-25.58 158.84-29.05 160.66-31.25 162.49-33.45 165.06-34.48 167.64-35.5 170.79-35.5L170.79-35.5Q175.49-35.5 178.21-33.48 180.94-31.45 182.69-27.35L182.69-27.35 176.49-24.15Q176.19-25.25 175.81-26.2 175.44-27.15 174.79-27.8 174.14-28.45 173.16-28.83 172.19-29.2 170.79-29.2L170.79-29.2Q167.79-29.2 166.09-27.4 164.39-25.6 164.39-22L164.39-22 164.39-12.9Q164.39-9.3 166.09-7.5 167.79-5.7 170.79-5.7L170.79-5.7Q172.19-5.7 173.21-6.13 174.24-6.55 174.94-7.28 175.64-8 176.09-8.97 176.54-9.95 176.89-11.1L176.89-11.1 182.79-7.7Q181.89-5.75 180.79-4.2 179.69-2.65 178.26-1.58 176.84-0.5 174.99 0.05 173.14 0.6 170.79 0.6ZM206.19 0L206.19-14.55 194.59-14.55 194.59 0 187.44 0 187.44-34.9 194.59-34.9 194.59-20.75 206.19-20.75 206.19-34.9 213.34-34.9 213.34 0 206.19 0ZM232.78 0.6L232.78 0.6Q229.63 0.6 227.08-0.38 224.53-1.35 222.73-3.53 220.93-5.7 219.93-9.13 218.93-12.55 218.93-17.45L218.93-17.45Q218.93-22.35 219.93-25.78 220.93-29.2 222.73-31.38 224.53-33.55 227.08-34.52 229.63-35.5 232.78-35.5L232.78-35.5Q235.93-35.5 238.48-34.52 241.03-33.55 242.83-31.38 244.63-29.2 245.63-25.78 246.63-22.35 246.63-17.45L246.63-17.45Q246.63-12.55 245.63-9.13 244.63-5.7 242.83-3.53 241.03-1.35 238.48-0.38 235.93 0.6 232.78 0.6ZM232.78-5.7L232.78-5.7Q235.78-5.7 237.41-7.5 239.03-9.3 239.03-12.9L239.03-12.9 239.03-22Q239.03-25.6 237.41-27.4 235.78-29.2 232.78-29.2L232.78-29.2Q229.78-29.2 228.16-27.4 226.53-25.6 226.53-22L226.53-22 226.53-12.9Q226.53-9.3 228.16-7.5 229.78-5.7 232.78-5.7ZM266.43 0L251.08 0 251.08-5.65 255.18-5.65 255.18-29.25 251.08-29.25 251.08-34.9 266.43-34.9 266.43-29.25 262.33-29.25 262.33-5.65 266.43-5.65 266.43 0ZM284.88 0.6L284.88 0.6Q281.73 0.6 279.15-0.35 276.58-1.3 274.75-3.4 272.93-5.5 271.9-8.9 270.88-12.3 270.88-17.2L270.88-17.2Q270.88-22.1 271.9-25.58 272.93-29.05 274.75-31.25 276.58-33.45 279.15-34.48 281.73-35.5 284.88-35.5L284.88-35.5Q289.58-35.5 292.3-33.48 295.03-31.45 296.78-27.35L296.78-27.35 290.58-24.15Q290.28-25.25 289.9-26.2 289.53-27.15 288.88-27.8 288.23-28.45 287.25-28.83 286.28-29.2 284.88-29.2L284.88-29.2Q281.88-29.2 280.18-27.4 278.48-25.6 278.48-22L278.48-22 278.48-12.9Q278.48-9.3 280.18-7.5 281.88-5.7 284.88-5.7L284.88-5.7Q286.28-5.7 287.3-6.13 288.33-6.55 289.03-7.28 289.73-8 290.18-8.97 290.63-9.95 290.98-11.1L290.98-11.1 296.88-7.7Q295.98-5.75 294.88-4.2 293.78-2.65 292.35-1.58 290.93-0.5 289.08 0.05 287.23 0.6 284.88 0.6ZM323.12 0L301.52 0 301.52-34.9 323.12-34.9 323.12-28.65 308.68-28.65 308.68-20.75 320.93-20.75 320.93-14.55 308.68-14.55 308.68-6.25 323.12-6.25 323.12 0Z" fill="#ffffff" data-fill-palette-color="secondary"></path></g></svg></g></svg></g></svg></g></svg></g><g transform="matrix(1,0,0,1,257.9223259763739,0)"><svg viewBox="0 0 66.41331815624302 66.41331815624302" height="66.41331815624302" width="66.41331815624302"><g><svg></svg></g><g id="icon-0"><svg viewBox="0 0 66.41331815624302 66.41331815624302" height="66.41331815624302" width="66.41331815624302"><g><path d="M0 33.207c0-18.34 14.867-33.207 33.207-33.207 18.34 0 33.207 14.867 33.206 33.207 0 18.34-14.867 33.207-33.206 33.206-18.34 0-33.207-14.867-33.207-33.206zM33.207 63.837c16.916 0 30.63-13.713 30.63-30.63 0-16.916-13.713-30.63-30.63-30.63-16.916 0-30.63 13.713-30.63 30.63 0 16.916 13.713 30.63 30.63 30.63z" data-fill-palette-color="accent" fill="#ffffff" stroke="transparent"></path></g><g transform="matrix(1,0,0,1,18.97805034607652,16.888787317713394)"><svg viewBox="0 0 28.457217464089975 32.635743520816234" height="32.635743520816234" width="28.457217464089975"><g><svg xmlns="http://www.w3.org/2000/svg" xmlns:xlink="http://www.w3.org/1999/xlink" version="1.1" x="0" y="0" viewBox="14.807007789611816 9.639999389648438 70.38499450683594 80.72000122070312" enable-background="new 0 0 100 100" xml:space="preserve" height="32.635743520816234" width="28.457217464089975" class="icon-s-0" data-fill-palette-color="accent" id="s-0"><g fill="#c53683" data-fill-palette-color="accent"><path d="M45.665 34.948c-0.299-3.745-0.556-6.927-0.627-7.617-0.086-0.812-0.428-1.554-1.009-2.147-0.763-1.188-3.126-3.122-10.398-6.467 0.984-0.862 1.747-2.004 1.747-3.641 0-2.997-2.438-5.435-5.436-5.435s-5.436 2.438-5.436 5.435h3.513c0-1.06 0.862-1.922 1.922-1.922 1.06 0 1.922 0.862 1.922 1.922 0 0.803-0.919 1.364-2.432 2.193l-0.281 0.154c-9.004 4.098-11.809 6.398-12.681 7.734-0.598 0.597-0.949 1.349-1.035 2.174-0.072 0.689-0.329 3.862-0.627 7.599l4.518 0.391-0.705 22.978c0.285 0.033 0.466 0.045 0.482 0.082h22.265c0.02-0.045 0.286-0.052 0.688-0.109l-0.705-22.95L45.665 34.948zM35.323 23.468c-1.203 0.474-3.031 0.778-5.086 0.778-2.156 0-4.062-0.334-5.257-0.849 1.57-0.837 3.306-1.702 4.98-2.479C31.763 21.717 33.636 22.608 35.323 23.468z" fill="#ffffff" data-fill-palette-color="accent"></path><path d="M85.192 26.455c0-0.93-0.009-2.79-10.768-7.739 0.985-0.862 1.747-2.004 1.747-3.641 0-2.997-2.438-5.435-5.436-5.435S65.3 12.079 65.3 15.076h3.514c0-1.06 0.862-1.922 1.922-1.922 1.06 0 1.922 0.862 1.922 1.922 0 0.803-0.919 1.364-2.432 2.193l-0.281 0.155c-13.074 5.95-13.076 8.109-13.076 9.032v4.104h5.796l-0.375 2.809c-0.476 2.781-1.867 4.318-1.867 4.318-0.964 8.788 3.902 18.35 1.385 24.355-7.094 16.928-5.217 28.318-5.217 28.318h5.903 7.935 0.613 7.935 5.903c0 0 1.877-11.391-5.216-28.318-2.517-6.006 2.35-15.568 1.384-24.355 0 0-1.391-1.537-1.866-4.318l-0.375-2.809h6.385V26.455zM75.778 34.685l-5.042 0.662-5.042-0.662v-4.126h10.084V34.685zM81.678 27.045H60.382v-0.237c1.02-1.136 5.918-3.821 10.371-5.89 4.676 2.07 9.833 4.764 10.925 5.914V27.045z" fill="#ffffff" data-fill-palette-color="accent"></path></g></svg></g></svg></g></svg></g></svg></g></svg></g></svg></g><path d="M201.435 92.574L201.435 26.914 394.807 26.914 394.807 220.286 201.435 220.286 201.435 154.626 203.377 154.626 203.377 218.344 392.865 218.344 392.865 28.856 203.377 28.856 203.377 92.574Z" fill="#ffffff" stroke="transparent" data-fill-palette-color="primary"></path></svg></g><defs></defs></svg><rect width="395.52" height="247.2" fill="none" stroke="none" visibility="hidden"></rect></g></svg></g></svg>